<svg xmlns="http://www.w3.org/2000/svg" viewBox="0 0 16 21" xml:space="preserve"><path d="M8 16c-.53 0-1.039-.211-1.414-.586S6 14.53 6 14c0-1.109.89-2 2-2 .53 0 1.039.211 1.414.586S10 13.47 10 14s-.211 1.039-.586 1.414S8.53 16 8 16zm6 3V9H2v10h12zm0-12c.53 0 1.039.211 1.414.586S16 8.47 16 9v10c0 .53-.211 1.039-.586 1.414S14.53 21 14 21H2c-.53 0-1.039-.211-1.414-.586S0 19.53 0 19V9c0-1.11.89-2 2-2h1V5c0-1.326.527-2.598 1.464-3.536C5.402.527 6.674 0 8 0c.656 0 1.307.129 1.914.381.606.251 1.157.619 1.621 1.083.465.465.833 1.016 1.084 1.622C12.871 3.693 13 4.343 13 5v2h1zM8 2c-.796 0-1.559.316-2.121.879C5.316 3.441 5 4.204 5 5v2h6V5c0-.796-.316-1.559-.879-2.121C9.559 2.316 8.796 2 8 2z"/></svg>