<svg xmlns="http://www.w3.org/2000/svg" viewBox="0 0 22 16" xml:space="preserve"><path d="M14 0c2.121 0 4.156.843 5.656 2.343C21.157 3.843 22 5.878 22 8c0 2.121-.843 4.156-2.344 5.656C18.156 15.157 16.121 16 14 16s-4.157-.843-5.657-2.344C6.843 12.156 6 10.121 6 8c0-2.122.843-4.157 2.343-5.657S11.879 0 14 0zm0 14c1.592 0 3.117-.633 4.242-1.758C19.368 11.117 20 9.592 20 8c0-1.591-.632-3.117-1.758-4.243C17.117 2.632 15.592 2 14 2s-3.117.632-4.243 1.757C8.632 4.883 8 6.409 8 8c0 1.592.632 3.117 1.757 4.242C10.883 13.367 12.408 14 14 14zM2 8c0 1.24.385 2.449 1.101 3.461S4.831 13.238 6 13.65v2.09C2.55 14.85 0 11.73 0 8 0 4.27 2.55 1.15 6 .26v2.09C3.67 3.17 2 5.39 2 8z"/></svg>