<svg xmlns="http://www.w3.org/2000/svg" viewBox="2 2 20 20" xml:space="preserve"><path d="M12 2c-1.313 0-2.614.259-3.827.761C6.96 3.264 5.857 4 4.929 4.929 3.054 6.804 2 9.348 2 12s1.054 5.195 2.929 7.071c.928.929 2.031 1.665 3.244 2.167C9.386 21.741 10.687 22 12 22c2.652 0 5.195-1.054 7.071-2.929C20.946 17.195 22 14.652 22 12c0-1.313-.259-2.614-.762-3.827C20.736 6.96 20 5.857 19.071 4.929 18.143 4 17.04 3.264 15.826 2.761 14.613 2.259 13.313 2 12 2zM7.07 18.279C7.5 17.38 10.12 16.5 12 16.5s4.5.88 4.93 1.779C15.53 19.396 13.791 20.002 12 20c-1.86 0-3.57-.641-4.93-1.721zm11.289-1.449C16.93 15.09 13.46 14.5 12 14.5s-4.93.59-6.36 2.33C4.576 15.445 4 13.746 4 12c0-4.41 3.59-8 8-8s8 3.59 8 8c0 1.82-.62 3.5-1.641 4.83zM12 6c-1.94 0-3.5 1.56-3.5 3.5S10.06 13 12 13c1.939 0 3.5-1.56 3.5-3.5S13.939 6 12 6zm0 5c-.398 0-.779-.158-1.061-.439S10.5 9.898 10.5 9.5s.158-.779.439-1.061S11.602 8 12 8s.779.158 1.061.439.439.663.439 1.061-.158.779-.439 1.061S12.398 11 12 11z"/></svg>