<svg xmlns="http://www.w3.org/2000/svg" viewBox="0 0 20 20" xml:space="preserve"><path d="M10 6c1.061 0 2.078.421 2.828 1.171C13.578 7.922 14 8.939 14 10c0 1.061-.422 2.078-1.172 2.828S11.061 14 10 14s-2.078-.422-2.829-1.172C6.421 12.078 6 11.061 6 10s.421-2.078 1.171-2.829C7.922 6.421 8.939 6 10 6zm0 2c-.53 0-1.039.211-1.414.586S8 9.47 8 10s.211 1.039.586 1.414S9.47 12 10 12s1.039-.211 1.414-.586S12 10.53 12 10s-.211-1.039-.586-1.414S10.53 8 10 8zM8 20c-.25 0-.46-.18-.5-.42l-.37-2.65c-.63-.25-1.17-.59-1.69-.99l-2.49 1.01c-.22.079-.49 0-.61-.22l-2-3.461c-.061-.103-.083-.225-.061-.342.022-.118.086-.224.181-.298l2.11-1.659L2.5 10l.07-1L.46 7.37c-.094-.074-.159-.18-.181-.297s0-.24.061-.343l2-3.46c.12-.22.39-.31.61-.22l2.49 1c.52-.39 1.06-.73 1.69-.98L7.5.42C7.54.18 7.75 0 8 0h4c.25 0 .46.18.5.42l.37 2.65c.63.25 1.17.59 1.69.98l2.489-1c.22-.09.49 0 .61.22l2 3.46c.13.22.07.49-.12.64L17.43 9l.07 1-.07 1 2.11 1.63c.19.149.25.42.12.64l-2 3.461c-.12.22-.391.31-.61.22l-2.489-1c-.521.39-1.061.729-1.69.979l-.37 2.65c-.041.24-.251.42-.501.42H8zM9.25 2l-.37 2.61c-1.2.25-2.26.89-3.03 1.78L3.44 5.35l-.75 1.3L4.8 8.2c-.4 1.167-.4 2.433 0 3.6l-2.12 1.56.75 1.301 2.43-1.04c.77.88 1.82 1.521 3.01 1.76L9.24 18h1.52l.37-2.609c1.19-.25 2.24-.891 3.011-1.771l2.43 1.04.75-1.301-2.12-1.549c.399-1.17.399-2.44 0-3.61l2.11-1.55-.75-1.3-2.41 1.04c-.786-.91-1.852-1.533-3.03-1.77L10.75 2h-1.5z"/></svg>