<svg xmlns="http://www.w3.org/2000/svg" viewBox="0 0 20 15" xml:space="preserve"><path d="M14 13v2H0v-2s0-4 7-4 7 4 7 4zm-3.5-9.5c0-.692-.205-1.369-.59-1.944C9.525.98 8.979.531 8.339.267 7.7.001 6.996-.068 6.317.067c-.679.135-1.302.469-1.792.958-.49.49-.823 1.113-.958 1.792s-.066 1.383.2 2.022c.264.64.713 1.186 1.289 1.571C5.631 6.795 6.308 7 7 7c.928 0 1.818-.369 2.475-1.025.656-.657 1.025-1.547 1.025-2.475zM13.939 9c.615.476 1.118 1.08 1.475 1.771.356.692.556 1.452.586 2.229v2h4v-2s0-3.63-6.061-4zM13 0c-.688-.004-1.361.202-1.93.59.607.849.934 1.866.934 2.91s-.326 2.061-.934 2.91c.569.388 1.242.594 1.93.59.928 0 1.818-.369 2.475-1.025.656-.657 1.025-1.547 1.025-2.475s-.369-1.818-1.025-2.475C14.818.369 13.928 0 13 0z"/></svg>